<svg width="48" height="48" viewBox="0 0 48 48" fill="none" xmlns="http://www.w3.org/2000/svg">
<path fill-rule="evenodd" clip-rule="evenodd" d="M43.8002 10.8016C43.4694 10.8016 43.2002 10.5324 43.2002 10.2016C43.2002 9.87069 43.4694 9.60156 43.8002 9.60156C44.131 9.60156 44.4002 9.87069 44.4002 10.2016C44.4002 10.5324 44.131 10.8016 43.8002 10.8016Z" fill="#ECECFE"/>
<path fill-rule="evenodd" clip-rule="evenodd" d="M4.2001 10.8016C3.86926 10.8016 3.6001 10.5324 3.6001 10.2016C3.6001 9.87069 3.86926 9.60156 4.2001 9.60156C4.53094 9.60156 4.8001 9.87069 4.8001 10.2016C4.8001 10.5324 4.53094 10.8016 4.2001 10.8016Z" fill="#ECECFE"/>
<path fill-rule="evenodd" clip-rule="evenodd" d="M6.6 40.8016C6.26916 40.8016 6 40.5324 6 40.2016C6 39.8707 6.26916 39.6016 6.6 39.6016C6.93084 39.6016 7.2 39.8707 7.2 40.2016C7.2 40.5324 6.93084 40.8016 6.6 40.8016Z" fill="#ECECFE"/>
<path fill-rule="evenodd" clip-rule="evenodd" d="M11.3998 3.59844C11.069 3.59844 10.7998 3.32928 10.7998 2.99844C10.7998 2.66757 11.069 2.39844 11.3998 2.39844C11.7306 2.39844 11.9998 2.66757 11.9998 2.99844C11.9998 3.32928 11.7306 3.59844 11.3998 3.59844Z" fill="#ECECFE"/>
<path fill-rule="evenodd" clip-rule="evenodd" d="M32.9999 46.8016C32.6691 46.8016 32.3999 46.5324 32.3999 46.2016C32.3999 45.8707 32.6691 45.6016 32.9999 45.6016C33.3307 45.6016 33.5999 45.8707 33.5999 46.2016C33.5999 46.5324 33.3307 46.8016 32.9999 46.8016Z" fill="#ECECFE"/>
<path d="M32.4219 24.4406C32.5108 24.1214 32.8416 23.9347 33.1609 24.0236C34.5646 24.4144 35.6407 25.5154 35.9256 26.8805C35.9933 27.2049 35.7852 27.5227 35.4609 27.5904C35.1365 27.6581 34.8186 27.45 34.7509 27.1257C34.5598 26.2098 33.8197 25.4527 32.839 25.1796C32.5197 25.0907 32.333 24.7598 32.4219 24.4406Z" fill="#E1000F"/>
<path fill-rule="evenodd" clip-rule="evenodd" d="M26.3999 27.6016C26.3999 24.2925 29.0909 21.6016 32.3999 21.6016C35.7089 21.6016 38.3999 24.2925 38.3999 27.6016C38.3999 29.1412 37.8173 30.5471 36.8608 31.6104L40.398 37.7369C40.895 38.5979 40.6001 39.6987 39.7391 40.1958C38.909 40.6751 37.8557 40.4179 37.3358 39.627L37.2803 39.5369L33.7633 33.4454C33.3252 33.5475 32.8687 33.6016 32.3999 33.6016C29.091 33.6016 26.3999 30.9105 26.3999 27.6016ZM34.919 33.047L38.3195 38.9369C38.4852 39.2239 38.8522 39.3222 39.1391 39.1566C39.4056 39.0027 39.5094 38.6753 39.3902 38.3996L39.3587 38.3369L35.9514 32.4352C35.6301 32.6719 35.2844 32.8773 34.919 33.047ZM37.1999 27.6016C37.1999 24.9552 35.0462 22.8016 32.3999 22.8016C29.7536 22.8016 27.5999 24.9552 27.5999 27.6016C27.5999 30.2478 29.7537 32.4016 32.3999 32.4016C35.0461 32.4016 37.1999 30.2478 37.1999 27.6016Z" fill="#E1000F"/>
<path d="M41.3958 10.7292C41.3611 10.4308 41.1075 10.1992 40.7998 10.1992H8.3998L8.32983 10.2033C8.03143 10.2379 7.7998 10.4915 7.7998 10.7992V38.3992L7.80384 38.4692C7.8385 38.7676 8.0921 38.9992 8.3998 38.9992H33.5998L33.6698 38.9952C33.9682 38.9605 34.1998 38.7069 34.1998 38.3992L34.1958 38.3292C34.1611 38.0308 33.9075 37.7992 33.5998 37.7992H8.9998V16.1992H31.1998L31.2698 16.1952C31.5682 16.1605 31.7998 15.9069 31.7998 15.5992C31.7998 15.2678 31.5312 14.9992 31.1998 14.9992H8.9998V11.3992H40.1998V14.9992H34.7998L34.7298 15.0033C34.4314 15.0379 34.1998 15.2915 34.1998 15.5992C34.1998 15.9306 34.4684 16.1992 34.7998 16.1992H40.1998V33.5992L40.2038 33.6692C40.2385 33.9676 40.4921 34.1992 40.7998 34.1992C41.1312 34.1992 41.3998 33.9306 41.3998 33.5992V10.7992L41.3958 10.7292Z" fill="#000091"/>
<path d="M10.7998 13.7992C10.469 13.7992 10.1998 13.5301 10.1998 13.1992C10.1998 12.8684 10.469 12.5992 10.7998 12.5992C11.1306 12.5992 11.3998 12.8684 11.3998 13.1992C11.3998 13.5301 11.1306 13.7992 10.7998 13.7992Z" fill="#000091"/>
<path d="M12.5998 13.1992C12.5998 13.5301 12.869 13.7992 13.1998 13.7992C13.5306 13.7992 13.7998 13.5301 13.7998 13.1992C13.7998 12.8684 13.5306 12.5992 13.1998 12.5992C12.869 12.5992 12.5998 12.8684 12.5998 13.1992Z" fill="#000091"/>
<path d="M15.5998 13.7992C15.269 13.7992 14.9998 13.5301 14.9998 13.1992C14.9998 12.8684 15.269 12.5992 15.5998 12.5992C15.9306 12.5992 16.1998 12.8684 16.1998 13.1992C16.1998 13.5301 15.9306 13.7992 15.5998 13.7992Z" fill="#000091"/>
<path d="M38.3998 12.5992C38.7312 12.5992 38.9998 12.8678 38.9998 13.1992C38.9998 13.5069 38.7682 13.7605 38.4698 13.7952L38.3998 13.7992H20.3998C20.0684 13.7992 19.7998 13.5306 19.7998 13.1992C19.7998 12.8915 20.0314 12.6379 20.3298 12.6033L20.3998 12.5992H38.3998Z" fill="#000091"/>
<path d="M24.5998 20.3992C24.5998 20.0678 24.3312 19.7992 23.9998 19.7992H13.1998L13.1298 19.8033C12.8314 19.8379 12.5998 20.0915 12.5998 20.3992C12.5998 20.7306 12.8684 20.9992 13.1998 20.9992H23.9998L24.0698 20.9952C24.3682 20.9605 24.5998 20.7069 24.5998 20.3992Z" fill="#000091"/>
<path d="M21.5998 23.3992C21.9312 23.3992 22.1998 23.6678 22.1998 23.9992C22.1998 24.3069 21.9682 24.5605 21.6698 24.5952L21.5998 24.5992H13.1998C12.8684 24.5992 12.5998 24.3306 12.5998 23.9992C12.5998 23.6915 12.8314 23.4379 13.1298 23.4033L13.1998 23.3992H21.5998Z" fill="#000091"/>
<path d="M20.9998 27.5992C20.9998 27.2678 20.7312 26.9992 20.3998 26.9992H13.1998L13.1298 27.0033C12.8314 27.0379 12.5998 27.2915 12.5998 27.5992C12.5998 27.9306 12.8684 28.1992 13.1998 28.1992H20.3998L20.4698 28.1952C20.7682 28.1605 20.9998 27.9069 20.9998 27.5992Z" fill="#000091"/>
</svg>
